<svg id="Layer_1" data-name="Layer 1" xmlns="http://www.w3.org/2000/svg" viewBox="0 0 200 200"><path d="M129.3,47.27h43.44L129.3,3.43Z"/><path d="M176.17,59H117.58V0H23.83V200H176.17Zm-82,35.16h11.72v11.72H94.14Zm58.59,82H47.27V164.45H152.73Zm0-23.44H47.27V141H152.73Zm0-23.43H47.27V117.58H152.73Zm0-23.44H117.58V94.14h35.15Zm-95-46.77V80.35a25.52,25.52,0,0,0,.53,5.46A20.93,20.93,0,0,0,59.66,90a14.25,14.25,0,0,0,1.79,3,15.28,15.28,0,0,0,1.93,2A7.79,7.79,0,0,0,65,96.13a2.94,2.94,0,0,0,.8.28,12,12,0,0,0,4.71-1.06,15,15,0,0,0,4.51-3,16.11,16.11,0,0,0,3.34-4.63,13.23,13.23,0,0,0,1.3-5.89,16.46,16.46,0,0,0-.34-3.25c-.11-.48-.24-1-.39-1.49-.22.21-.43.41-.66.6a13.64,13.64,0,0,1-2.51,1.69,12.7,12.7,0,0,1-2.69,1,8.72,8.72,0,0,1-5.58-.21,6.28,6.28,0,0,1-2.2-1.56A6.6,6.6,0,0,1,64,76.42a7.8,7.8,0,0,1-.43-2.55,9.17,9.17,0,0,1,1-4.22A10.05,10.05,0,0,1,67,66.5a11,11,0,0,1,3.51-2,12.2,12.2,0,0,1,4-.66,12.39,12.39,0,0,1,6.26,1.55,13.31,13.31,0,0,1,4.37,4A17.67,17.67,0,0,1,87.66,75a24.08,24.08,0,0,1,.83,6.26,27.58,27.58,0,0,1-1.63,9.59,22,22,0,0,1-4.73,7.69,21.73,21.73,0,0,1-7.53,5.08,26,26,0,0,1-9.9,1.81,8.19,8.19,0,0,1-2.32-.5,14.52,14.52,0,0,1-3.31-1.65,23.38,23.38,0,0,1-3.66-3,21,21,0,0,1-3.48-4.7A28.21,28.21,0,0,1,49.37,89a34.8,34.8,0,0,1-1-8.69V59.09H34.3V50.44H48.38V37.14a5.3,5.3,0,0,1-3.45-.34,6.7,6.7,0,0,1-1.84-1.22,6,6,0,0,1-1.34-1.87,5.59,5.59,0,0,1-.51-2.38,7,7,0,0,1,1.93-4.71,7.47,7.47,0,0,1,5.67-2.4,7.13,7.13,0,0,1,4.36,1.33,9.35,9.35,0,0,1,2.73,3.25,15,15,0,0,1,1.43,4.29,26.68,26.68,0,0,1,.41,4.64V50.44H95.39v8.65Z"/></svg>