<svg id="Layer_1" data-name="Layer 1" xmlns="http://www.w3.org/2000/svg" viewBox="0 0 200 200"><path d="M110.42,0H22.92A22.91,22.91,0,0,0,0,22.92V152.08A22.91,22.91,0,0,0,22.92,175h63a66,66,0,0,1-6.75-29.17A63.85,63.85,0,0,1,82.58,125a60.06,60.06,0,0,1,5.59-12.5,67.41,67.41,0,0,1,45.16-32.17V22.92A22.9,22.9,0,0,0,110.42,0ZM100,85.42a6.24,6.24,0,0,1-10.67,4.41l-6.58-6.58L70.91,94.17a6.22,6.22,0,0,1-7.34.84L53.13,89,35.67,106.5a6.25,6.25,0,0,1-8.84,0,6.25,6.25,0,0,1,0-8.84L47.67,76.83a6.21,6.21,0,0,1,7.51-1l10.61,6.06L73.9,74.4,68.5,69a6.25,6.25,0,0,1,4.42-10.67H93.75A6.25,6.25,0,0,1,100,64.58Z"/><path d="M145.83,91.67A54.17,54.17,0,1,0,200,145.83,54.23,54.23,0,0,0,145.83,91.67Zm-5.25,48.48v21a25.7,25.7,0,0,0,.52,5.4,21.53,21.53,0,0,0,1.34,4.15,14.58,14.58,0,0,0,1.78,3,14.25,14.25,0,0,0,1.91,2,7,7,0,0,0,1.58,1.06,2.84,2.84,0,0,0,.79.28,11.72,11.72,0,0,0,4.65-1.05,14.86,14.86,0,0,0,4.46-2.95,15.76,15.76,0,0,0,3.3-4.58,13.08,13.08,0,0,0,1.28-5.82,16.12,16.12,0,0,0-.33-3.21c-.11-.48-.23-1-.39-1.47l-.65.59a13.32,13.32,0,0,1-2.48,1.67,12.76,12.76,0,0,1-2.66,1,8.64,8.64,0,0,1-5.51-.21,6.07,6.07,0,0,1-2.18-1.54,6.37,6.37,0,0,1-1.29-2.21,7.62,7.62,0,0,1-.42-2.52,9.11,9.11,0,0,1,.95-4.17,9.92,9.92,0,0,1,2.48-3.11,10.85,10.85,0,0,1,3.47-1.94,12,12,0,0,1,3.92-.66,12.22,12.22,0,0,1,6.19,1.53,13.55,13.55,0,0,1,4.33,4,18.07,18.07,0,0,1,2.51,5.52,24,24,0,0,1,.81,6.19,27.23,27.23,0,0,1-1.61,9.48,21.85,21.85,0,0,1-4.67,7.6,21.51,21.51,0,0,1-7.44,5,25.6,25.6,0,0,1-9.79,1.79,8.23,8.23,0,0,1-2.29-.49,14.63,14.63,0,0,1-3.28-1.63,23.32,23.32,0,0,1-3.61-3,20.72,20.72,0,0,1-3.44-4.65,27.7,27.7,0,0,1-2.53-6.5,34.06,34.06,0,0,1-1-8.59v-21H117.38V131.6H131.3V118.46a5.25,5.25,0,0,1-3.41-.34,6.72,6.72,0,0,1-1.82-1.21,5.91,5.91,0,0,1-1.32-1.84,5.53,5.53,0,0,1-.51-2.36,6.79,6.79,0,0,1,.47-2.37,7,7,0,0,1,1.45-2.29,7.69,7.69,0,0,1,2.34-1.69,7.51,7.51,0,0,1,3.26-.67,7.07,7.07,0,0,1,4.31,1.31,9.3,9.3,0,0,1,2.69,3.21,14.49,14.49,0,0,1,1.41,4.24,26.11,26.11,0,0,1,.41,4.59V131.6h37.18v8.55Z"/></svg>